<?xml version="1.0" encoding="UTF-8" standalone="no"?>
<!-- Generator: Assembly 2.4 - http://assemblyapp.co -->

<svg
   xmlns:dc="http://purl.org/dc/elements/1.1/"
   xmlns:cc="http://creativecommons.org/ns#"
   xmlns:rdf="http://www.w3.org/1999/02/22-rdf-syntax-ns#"
   xmlns:svg="http://www.w3.org/2000/svg"
   xmlns="http://www.w3.org/2000/svg"
   xmlns:sodipodi="http://sodipodi.sourceforge.net/DTD/sodipodi-0.dtd"
   xmlns:inkscape="http://www.inkscape.org/namespaces/inkscape"
   version="1.1"
   width="3165.00"
   height="4096.00"
   viewBox="0 0 3165.0 4096.0"
   id="svg23"
   sodipodi:docname="bookclub.svg"
   inkscape:export-filename="C:\Users\tanho\Downloads\bookclub.png"
   inkscape:export-xdpi="79.699997"
   inkscape:export-ydpi="79.699997"
   inkscape:version="0.92.4 (5da689c313, 2019-01-14)">
  <metadata
     id="metadata29">
    <rdf:RDF>
      <cc:Work
         rdf:about="">
        <dc:format>image/svg+xml</dc:format>
        <dc:type
           rdf:resource="http://purl.org/dc/dcmitype/StillImage" />
        <dc:title />
      </cc:Work>
    </rdf:RDF>
  </metadata>
  <defs
     id="defs27">
    <marker
       inkscape:stockid="Arrow2Lend"
       orient="auto"
       refY="0"
       refX="0"
       id="Arrow2Lend"
       style="overflow:visible"
       inkscape:isstock="true">
      <path
         id="path1692"
         style="fill:#d31027;fill-opacity:1;fill-rule:evenodd;stroke:#d31027;stroke-width:0.625;stroke-linejoin:round;stroke-opacity:1"
         d="M 8.7185878,4.0337352 -2.2072895,0.01601326 8.7185884,-4.0017078 c -1.7454984,2.3720609 -1.7354408,5.6174519 -6e-7,8.035443 z"
         transform="matrix(-0.8,0,0,-0.8,-0.8,0)"
         inkscape:connector-curvature="0" />
    </marker>
  </defs>
  <sodipodi:namedview
     pagecolor="#ffffff"
     bordercolor="#666666"
     borderopacity="1"
     objecttolerance="10"
     gridtolerance="10"
     guidetolerance="10"
     inkscape:pageopacity="0"
     inkscape:pageshadow="2"
     inkscape:window-width="1920"
     inkscape:window-height="1017"
     id="namedview25"
     showgrid="false"
     inkscape:zoom="0.16186378"
     inkscape:cx="-227.18891"
     inkscape:cy="1658.5694"
     inkscape:window-x="1672"
     inkscape:window-y="-8"
     inkscape:window-maximized="1"
     inkscape:current-layer="svg23" />
  <path
     sodipodi:type="star"
     style="fill:#3092ff;fill-opacity:1;stroke:#ffffff;stroke-width:3.8564949;stroke-linecap:round;stroke-linejoin:miter;stroke-miterlimit:4;stroke-dasharray:none;stroke-opacity:1;paint-order:normal"
     id="path821"
     sodipodi:sides="6"
     sodipodi:cx="170.52629"
     sodipodi:cy="409.28586"
     sodipodi:r1="120.00529"
     sodipodi:r2="85.672287"
     sodipodi:arg1="2.6179504"
     sodipodi:arg2="3.1415491"
     inkscape:flatsided="true"
     inkscape:rounded="0"
     inkscape:randomized="0"
     d="m 66.601273,469.29302 -0.0052,-120.00529 103.925015,-60.00716 103.93024,59.99813 0.005,120.00528 -103.92502,60.00717 z"
     inkscape:export-xdpi="79.699997"
     inkscape:export-ydpi="79.699997"
     transform="matrix(14.933402,0,0,14.82185,-964.03765,-3839.2106)" />
  <g
     transform="matrix(2.7019287,0,0,2.7019287,1696.5961,1261.3137)"
     id="flat"
     inkscape:export-xdpi="79.699997"
     inkscape:export-ydpi="79.699997">
    <path
       style="fill:#cbcbcb"
       inkscape:connector-curvature="0"
       d="M 320,88 H 192 l 8,-24 h 112 z"
       id="path2" />
    <rect
       style="fill:#27c5a7"
       height="304"
       rx="16"
       width="464"
       x="24"
       y="88"
       id="rect4" />
    <path
       style="fill:#6ee7f5"
       inkscape:connector-curvature="0"
       d="M 256,240 H 24 v 136 a 16,16 0 0 0 16,16 h 216 z"
       id="path6-9" />
    <path
       style="fill:#fbb540"
       inkscape:connector-curvature="0"
       d="m 256,240 h 232 v 136 a 16,16 0 0 1 -16,16 H 256 Z"
       id="path8-2" />
    <path
       style="fill:#43dcfe"
       inkscape:connector-curvature="0"
       d="M 256,240 H 488 V 104 A 16,16 0 0 0 472,88 H 256 Z"
       id="path10-8" />
    <path
       style="fill:#02a437"
       inkscape:connector-curvature="0"
       d="m 120,192 -19.839,9.919 A 22,22 0 0 0 88,221.6 V 240 h 96 V 221.6 A 22,22 0 0 0 171.839,201.922 L 152,192 Z"
       id="path12-0" />
    <path
       style="fill:#0bafea"
       inkscape:connector-curvature="0"
       d="m 120,344 -19.839,9.919 A 22,22 0 0 0 88,373.6 V 392 h 96 V 373.6 A 22,22 0 0 0 171.839,353.922 L 152,344 Z"
       id="path14-7" />
    <path
       style="fill:#e82f3e"
       inkscape:connector-curvature="0"
       d="m 352,192 -19.839,9.919 A 22,22 0 0 0 320,221.6 V 240 h 96 V 221.6 A 22,22 0 0 0 403.839,201.922 L 384,192 Z"
       id="path16-1" />
    <path
       style="fill:#dc651e"
       inkscape:connector-curvature="0"
       d="m 352,344 -19.839,9.919 A 22,22 0 0 0 320,373.6 V 392 h 96 V 373.6 A 22,22 0 0 0 403.839,353.922 L 384,344 Z"
       id="path18" />
    <path
       style="fill:#eaeae8"
       inkscape:connector-curvature="0"
       d="m 174,456 h 164 a 14,14 0 0 1 14,14 v 18 H 160 v -18 a 14,14 0 0 1 14,-14 z"
       id="path20" />
    <path
       style="fill:#cbcbcb"
       inkscape:connector-curvature="0"
       d="m 320,392 h -41.366 a 24,24 0 1 1 -45.268,0 H 192 l -8,64 h 144 z"
       id="path22" />
    <rect
       style="fill:#fdc9a6"
       height="64"
       rx="24"
       width="48"
       x="112"
       y="136"
       id="rect24" />
    <path
       style="fill:#ea9d2d"
       inkscape:connector-curvature="0"
       d="m 112,168 16,-8 32,8 v -8 a 24,24 0 0 0 -24,-24 24,24 0 0 0 -24,24 z"
       id="path26" />
    <rect
       style="fill:#fdc9a6"
       height="64"
       rx="24"
       width="48"
       x="112"
       y="288"
       id="rect28" />
    <path
       style="fill:#683b0d"
       inkscape:connector-curvature="0"
       d="m 112,320 16,-8 h 16 l 16,8 v -8 a 24,24 0 0 0 -24,-24 24,24 0 0 0 -24,24 z"
       id="path30" />
    <circle
       style="fill:#683b0d"
       cx="136"
       cy="280"
       r="16"
       id="circle32" />
    <rect
       style="fill:#fdc9a6"
       height="64"
       rx="24"
       width="48"
       x="344"
       y="136"
       id="rect34" />
    <rect
       style="fill:#fdc9a6"
       height="64"
       rx="24"
       width="48"
       x="344"
       y="288"
       id="rect36" />
    <path
       style="fill:#683b0d"
       inkscape:connector-curvature="0"
       d="m 392,320 -16,-8 h -16 l -16,8 -9.642,-19.284 a 19.724,19.724 0 0 1 3.695,-22.769 19.724,19.724 0 0 1 27.894,0 L 368,280 l 1.8,-0.9 a 22.031,22.031 0 0 1 25.431,4.126 22.03,22.03 0 0 1 2.752,27.8 z"
       id="path38" />
    <path
       style="fill:#02a437"
       inkscape:connector-curvature="0"
       d="m 192,120 h 32 v 32 h -32 z"
       id="path40" />
    <path
       style="fill:#dc651e"
       inkscape:connector-curvature="0"
       d="m 424,272 h 32 v 32 h -32 z"
       id="path42" />
    <circle
       style="fill:#0bafea"
       cx="208"
       cy="288"
       r="16"
       id="circle44" />
    <circle
       style="fill:#e82f3e"
       cx="440"
       cy="136"
       r="16"
       id="circle46" />
    <circle
       style="fill:#eaeae8"
       cx="255.793"
       cy="63.792999"
       r="39.792999"
       id="circle48" />
    <circle
       style="fill:#0a9acd"
       cx="256"
       cy="64"
       r="16"
       id="circle50" />
    <circle
       style="fill:#0bafea"
       cx="256"
       cy="64"
       r="8"
       id="circle52" />
    <path
       style="fill:#ea9d2d"
       inkscape:connector-curvature="0"
       d="m 368,136 a 24,24 0 0 1 24,24 v 8 h -48 v -8 a 24,24 0 0 1 24,-24 z"
       id="path54" />
    <path
       style="fill:#683b0d"
       inkscape:connector-curvature="0"
       d="m 392,176 h -72 a 8,8 0 0 1 0,-16 h 72 a 8,8 0 0 1 0,16 z"
       id="path56" />
  </g>
  <text
     xml:space="preserve"
     style="font-style:normal;font-variant:normal;font-weight:normal;font-stretch:normal;font-size:40px;line-height:1.25;font-family:Luxia;-inkscape-font-specification:Luxia;letter-spacing:0px;word-spacing:0px;fill:#ffffff;fill-opacity:1;stroke:none"
     x="98.596352"
     y="3078.5369"
     id="text2040"
     inkscape:export-xdpi="79.699997"
     inkscape:export-ydpi="79.699997"><tspan
       sodipodi:role="line"
       id="tspan2038"
       x="98.596352"
       y="3078.5369"
       style="font-style:normal;font-variant:normal;font-weight:bold;font-stretch:normal;font-size:333.33334351px;font-family:'Libre Baskerville';-inkscape-font-specification:'Libre Baskerville, Bold';font-variant-ligatures:normal;font-variant-caps:normal;font-variant-numeric:normal;font-feature-settings:normal;text-align:start;writing-mode:lr-tb;text-anchor:start;fill:#ffffff;fill-opacity:1">R4DS Book Club</tspan></text>
  <g
     id="g2258"
     transform="matrix(1.0048393,0,0,1.0048393,-38.190658,-112.74775)">
    <flowRoot
       inkscape:export-ydpi="79.699997"
       inkscape:export-xdpi="79.699997"
       style="font-style:normal;font-variant:normal;font-weight:normal;font-stretch:normal;font-size:40px;line-height:1.25;font-family:Luxia;-inkscape-font-specification:Luxia;letter-spacing:0px;word-spacing:0px;fill:#000000;fill-opacity:1;stroke:none"
       id="flowRoot2022"
       xml:space="preserve"><flowRegion
         id="flowRegion2024"><rect
           y="1024"
           x="4139.3896"
           height="364.47458"
           width="1327.7288"
           id="rect2026" /></flowRegion><flowPara
         id="flowPara2028" /></flowRoot>    <flowRoot
       inkscape:export-ydpi="79.699997"
       inkscape:export-xdpi="79.699997"
       style="font-style:normal;font-variant:normal;font-weight:normal;font-stretch:normal;font-size:40px;line-height:1.25;font-family:Luxia;-inkscape-font-specification:Luxia;letter-spacing:0px;word-spacing:0px;fill:#000000;fill-opacity:1;stroke:none"
       id="flowRoot2030"
       xml:space="preserve"><flowRegion
         id="flowRegion2032"><rect
           y="2256.2712"
           x="0"
           height="902.50848"
           width="2273.6272"
           id="rect2034" /></flowRegion><flowPara
         id="flowPara2036" /></flowRoot>    <text
       inkscape:export-ydpi="79.699997"
       inkscape:export-xdpi="79.699997"
       id="text2040-7"
       y="1170.6329"
       x="772.33063"
       style="font-style:normal;font-variant:normal;font-weight:normal;font-stretch:normal;font-size:40px;line-height:1.25;font-family:Luxia;-inkscape-font-specification:Luxia;letter-spacing:0px;word-spacing:0px;fill:#ffffff;fill-opacity:1;stroke:none"
       xml:space="preserve"><tspan
         style="font-style:normal;font-variant:normal;font-weight:normal;font-stretch:normal;font-size:400px;font-family:'Gill Sans MT';-inkscape-font-specification:'Gill Sans MT, Normal';font-variant-ligatures:normal;font-variant-caps:normal;font-variant-numeric:normal;font-feature-settings:normal;text-align:start;writing-mode:lr-tb;text-anchor:start;fill:#ffffff;fill-opacity:1"
         y="1206.2729"
         x="772.33063"
         id="tspan2038-3"
         sodipodi:role="line" /></text>
    <g
       inkscape:export-ydpi="79.699997"
       inkscape:export-xdpi="79.699997"
       transform="matrix(2.6406466,0,0,2.6406466,233.26879,1183.5461)"
       id="g10">
      <path
         style="fill:#89ce6d"
         inkscape:connector-curvature="0"
         d="m 253.806,230.671 c 0.733,0 1.463,0.017 2.194,0.027 L 267.699,201.123 256,174.941 c -2.231,-0.067 -4.465,-0.112 -6.707,-0.112 -74.254,0 -142.867,37.154 -183.542,99.386 l 51.287,30.514 c 30.309,-46.373 81.437,-74.058 136.768,-74.058 z"
         id="path2-87" />
      <path
         style="fill:#5eb16a"
         inkscape:connector-curvature="0"
         d="M 404.235,239.008 C 364.433,199.207 312.015,176.614 256,174.941 v 55.756 c 42.792,0.56 82.94,17.476 113.262,47.797 29.328,29.328 46.126,67.849 47.701,109.065 0.056,1.476 51.396,0.664 51.287,-2.186 -2.115,-55.311 -24.657,-107.006 -64.015,-146.365 z"
         id="path4-8" />
      <path
         style="fill:#fd6c5f"
         inkscape:connector-curvature="0"
         d="m 253.806,230.671 c -55.331,0 -106.459,27.685 -136.768,74.058 l 52.531,39.632 c 28.346,-39.016 66.645,-45.732 86.432,-46.854 L 267.7,260.572 256,230.698 c -0.731,-0.01 -1.461,-0.027 -2.194,-0.027 z"
         id="path6-6" />
      <path
         style="fill:#fd465f"
         inkscape:connector-curvature="0"
         d="m 256,230.698 v 66.809 c 5.004,-0.284 8.825,-0.21 11.001,-0.21 0,0 78.643,15.434 79.304,95.645 26.787,-1.394 70.715,-3.906 70.659,-5.383 C 415.388,346.343 398.591,307.823 369.263,278.494 338.94,248.173 298.792,231.258 256,230.698 Z"
         id="path8-9" />
    </g>
    <g
       inkscape:export-ydpi="79.699997"
       inkscape:export-xdpi="79.699997"
       transform="matrix(2.6406466,0,0,2.6406466,233.26879,1183.5461)"
       id="g18">
      <path
         style="fill:#6ae1db"
         inkscape:connector-curvature="0"
         d="m 247.773,156.015 c -80.629,0 -155.135,40.344 -199.302,107.92 l 25.112,16.414 c 38.606,-59.069 103.725,-94.334 174.19,-94.334 2.757,0 5.496,0.071 8.227,0.177 L 269.406,174.829 256,156.171 c -2.736,-0.093 -5.476,-0.156 -8.227,-0.156 z"
         id="path12-3" />
      <path
         style="fill:#fdd752"
         inkscape:connector-curvature="0"
         d="m 91.781,304.33 25.989,14.984 c 26.78,-46.446 76.593,-75.3 130.002,-75.3 2.761,0 5.503,0.081 8.227,0.229 L 267.698,231.508 256,214.211 c -2.728,-0.124 -5.469,-0.196 -8.227,-0.196 -64.1,0 -123.872,34.606 -155.992,90.315 z"
         id="path14-6" />
      <path
         style="fill:#fd465f"
         inkscape:connector-curvature="0"
         d="m 140.056,336.838 26.484,14.092 c 16.054,-30.172 47.181,-48.915 81.232,-48.915 2.773,0 5.516,0.131 8.227,0.372 L 269.405,290.889 256,272.298 c -2.72,-0.182 -5.462,-0.284 -8.227,-0.284 -45.167,10e-4 -86.441,24.84 -107.717,64.824 z"
         id="path16-9" />
    </g>
    <path
       inkscape:export-ydpi="79.699997"
       inkscape:export-xdpi="79.699997"
       style="fill:#21c8c7;stroke-width:2.6406467"
       inkscape:connector-curvature="0"
       d="m 1331.8279,1779.5506 c -113.5346,-113.532 -262.8763,-178.2225 -422.55358,-183.6147 v 79.2775 c 292.73148,11.4525 527.35828,253.1271 527.35828,548.6154 0,0 79.0636,-16.4222 78.7493,-24.5923 -6.0629,-158.5999 -70.7006,-306.8273 -183.554,-419.6859 z"
       id="path20-3" />
    <path
       inkscape:export-ydpi="79.699997"
       inkscape:export-xdpi="79.699997"
       style="fill:#f8bd3f;stroke-width:2.6406467"
       inkscape:connector-curvature="0"
       d="m 1283.4751,2223.8288 h 79.2194 c 0,-254.7141 -201.4708,-463.2328 -453.42018,-474.6298 v 79.3065 c 208.24928,11.3205 374.20078,184.2987 374.20078,395.3233 z"
       id="path22-1" />
    <path
       inkscape:export-ydpi="79.699997"
       inkscape:export-xdpi="79.699997"
       style="fill:#ce0c51;stroke-width:2.6406467"
       inkscape:connector-curvature="0"
       d="m 1130.3176,2223.8288 h 79.2194 c 0,-170.2425 -132.814,-310.0277 -300.26268,-321.2399 v 79.4544 c 123.72218,11.0273 221.04328,115.2457 221.04328,241.7855 z"
       id="path24-4" />
    <path
       inkscape:export-ydpi="79.699997"
       inkscape:export-xdpi="79.699997"
       style="fill:#f7fcff;stroke:#000000;stroke-width:2.64100003;stroke-miterlimit:4;stroke-dasharray:none;stroke-opacity:0"
       inkscape:connector-curvature="0"
       d="m 615.21191,2014.8797 c -15.05696,-51.9732 -59.10559,-91.7519 -113.40785,-100.5901 -17.46523,-80.4473 -89.35155,-140.897 -175.12504,-140.897 -23.22184,0 -45.85218,4.3571 -67.26255,12.955 l -26.14768,9.9817 v 395.1041 l 80.5186,20.1243 434.86696,35.155 c 12.14697,-22.971 18.4634,-48.9206 18.27063,-75.0498 -0.62319,-83.9224 -67.9676,-152.6717 -151.71307,-156.7832 z"
       id="path26-0" />
    <g
       inkscape:export-ydpi="79.699997"
       inkscape:export-xdpi="79.699997"
       transform="matrix(2.6406466,0,0,2.6406466,233.26879,1183.5461)"
       id="g42">
      <g
         id="g30">
        <path
           style="fill:#fff7e7"
           inkscape:connector-curvature="0"
           d="M 211,381.682 H 0 c 6.939,7.383 11.38,17.314 11.38,28.245 0,11.025 -4.333,21.058 -11.38,28.458 l 6.137,2.984 h 185.689 l 1.71,41.741 H 268.23 L 256,426.682 c 0,-24.853 -20.147,-45 -45,-45 z"
           id="path28-8" />
      </g>
      <g
         id="g34">
        <path
           style="fill:#ffe6ce"
           inkscape:connector-curvature="0"
           d="m 301,381.682 h 211 c -6.939,7.383 -11.38,17.314 -11.38,28.245 0,11.025 4.333,21.058 11.38,28.458 l -6.137,2.984 H 320.174 l -1.71,41.741 H 256 v -56.428 c 0,-24.853 20.147,-45 45,-45 z"
           id="path32" />
      </g>
      <g
         id="g40">
        <path
           style="fill:#b1532b"
           inkscape:connector-curvature="0"
           d="M 213.124,466.999 V 438.385 H 0 v 30 h 183.124 v 28.614 H 256 L 269.406,483.11 256,466.999 Z"
           id="path36" />
        <path
           style="fill:#983424"
           inkscape:connector-curvature="0"
           d="m 298.236,438.385 v 28.614 H 256 v 30 h 72.236 V 468.385 H 512 v -30 z"
           id="path38-7" />
      </g>
    </g>
  </g>
  <text
     xml:space="preserve"
     style="font-style:normal;font-variant:normal;font-weight:normal;font-stretch:normal;font-size:40px;line-height:1.25;font-family:Luxia;-inkscape-font-specification:Luxia;letter-spacing:0px;word-spacing:0px;fill:#000000;fill-opacity:1;stroke:none"
     x="1171.0573"
     y="3422.5942"
     id="text4594"><tspan
       sodipodi:role="line"
       id="tspan4592"
       x="1171.0573"
       y="3422.5942"
       style="font-style:normal;font-variant:normal;font-weight:bold;font-stretch:normal;font-size:133.33332825px;font-family:'Libre Baskerville';-inkscape-font-specification:'Libre Baskerville, Bold';font-variant-ligatures:normal;font-variant-caps:normal;font-variant-numeric:normal;font-feature-settings:normal;text-align:start;writing-mode:lr-tb;text-anchor:start;fill:#ffffff;fill-opacity:1">r4ds.io/join</tspan></text>
</svg>
